<svg width="421" height="68" viewBox="0 0 421 68" fill="none" xmlns="http://www.w3.org/2000/svg">
<path d="M118.98 12.9031L119.381 22.5939H118.177C117.977 21.3826 117.776 20.1712 117.375 18.9599C116.773 17.9504 115.97 16.9409 114.967 16.3353C113.763 15.7296 112.359 15.5277 110.955 15.5277H105.136V47.2248C104.936 48.84 105.136 50.4551 105.939 52.0703C106.942 53.0797 108.146 53.4835 109.55 53.2816H110.955V54.493H93.5001V53.2816H94.9044C96.3088 53.4835 97.7132 52.8778 98.5157 51.6665C99.1176 50.2532 99.3182 48.6381 99.3182 47.2248V15.5277H94.3026C92.8982 15.5277 91.6944 15.5277 90.29 15.9315C89.0863 16.3353 88.2838 17.1428 87.6819 18.1523C86.8794 19.5655 86.4781 20.9788 86.2775 22.5939H85.0737L85.475 12.9031H118.98Z" fill="white"/>
<path d="M154.29 54.4917H145.462L134.227 38.946C133.424 38.946 132.622 38.946 132.221 38.946H131.619H130.816V48.6368C130.616 50.0501 130.816 51.2614 131.418 52.4728C132.221 53.2804 133.224 53.6842 134.227 53.4823H135.631V54.4917H121.387V53.4823H122.59C123.794 53.6842 124.998 53.0785 125.6 52.069C126.001 50.8577 126.202 49.6463 126.202 48.435V26.8324C126.402 25.4192 126.202 24.2078 125.6 22.9965C124.797 22.1889 123.794 21.7851 122.791 21.987H121.587V20.9775H133.625C136.233 20.9775 138.841 21.1794 141.449 21.7851C143.054 22.3908 144.659 23.4003 145.663 24.6116C146.866 26.0249 147.468 27.8419 147.468 29.6589C147.468 31.6779 146.866 33.4949 145.462 34.9081C143.857 36.5233 141.65 37.7346 139.243 38.1384L146.064 47.8293C147.067 49.4444 148.471 51.0596 150.076 52.2709C151.481 53.0785 152.885 53.4823 154.49 53.6842L154.29 54.4917ZM130.816 37.3309H132.221C134.829 37.5327 137.236 36.7252 139.443 35.3119C141.048 34.1006 141.851 32.0816 141.851 30.0627C141.851 28.2457 141.249 26.2268 139.844 25.0154C138.44 23.6021 136.634 22.9965 134.628 22.9965C133.424 22.9965 132.02 23.1984 130.816 23.4003V37.3309Z" fill="white"/>
<path d="M163.919 22.7946V35.9176H171.342C172.746 36.1195 173.95 35.7157 174.953 34.9081C175.956 33.8987 176.358 32.2835 176.358 30.8703H177.361V42.5801H176.558C176.558 41.5706 176.157 40.5611 175.956 39.5517C175.555 38.946 175.154 38.5422 174.552 38.1384C173.549 37.7346 172.546 37.7346 171.542 37.7346H164.119V48.8387C164.119 49.6463 164.119 50.6558 164.32 51.4633C164.521 51.8671 164.721 52.069 164.922 52.2709C165.524 52.4728 166.126 52.6747 166.727 52.4728H172.345C173.749 52.4728 174.953 52.4728 176.358 52.069C177.361 51.6652 178.163 51.2614 178.765 50.4539C179.969 49.0406 180.972 47.6274 181.975 45.8103H182.978L180.169 54.0879H154.489V53.0785H155.693C156.495 53.0785 157.298 52.8766 157.9 52.4728C158.502 52.2709 158.702 51.8671 158.903 51.2614C159.104 50.252 159.304 49.0406 159.104 48.0312V26.8324C159.304 25.4192 159.104 24.2078 158.502 22.9965C157.699 22.1889 156.696 21.987 155.492 21.987H154.289V20.9775H179.969L180.37 28.2457H179.367C179.166 27.0343 178.765 25.823 178.163 24.6116C177.762 24.0059 177.16 23.4003 176.358 22.9965C175.154 22.7946 174.151 22.5927 172.947 22.5927L163.919 22.7946Z" fill="white"/>
<path d="M182.978 20.9775H192.006L212.27 46.0122V26.8324C212.47 25.4192 212.27 24.2078 211.668 22.9965C210.865 22.1889 209.862 21.7851 208.859 21.987H207.655V20.9775H219.292V21.7851H218.088C216.884 21.5832 215.881 22.1889 215.078 22.9965C214.677 24.2078 214.476 25.4192 214.476 26.6305V54.8955H213.674L191.806 28.0438V48.6368C191.605 50.0501 191.806 51.2615 192.408 52.4728C193.21 53.2804 194.213 53.6842 195.216 53.4823H196.42V54.4917H184.784V53.4823H185.987C187.191 53.6842 188.194 53.0785 188.997 52.2709C189.398 51.0596 189.599 49.8482 189.599 48.6368V25.4192C188.997 24.6116 188.194 23.804 187.392 23.1984C186.79 22.7946 185.987 22.3908 185.185 22.1889C184.382 21.987 183.781 21.987 182.978 21.987V20.9775Z" fill="white"/>
<path d="M220.293 54.4931V53.4837H221.497C222.701 53.6856 223.704 53.0799 224.507 52.0704C224.908 50.8591 225.108 49.6477 225.108 48.4363V26.8338C225.309 25.4206 225.109 24.2092 224.507 22.9979C223.704 22.1903 222.701 21.7865 221.698 21.9884H220.494V20.9789H233.936C237.748 20.777 241.56 21.3827 245.372 22.5941C247.98 23.8054 250.187 25.8244 251.792 28.2471C253.397 31.0736 254.199 34.102 254.199 37.3322C254.4 41.572 252.795 45.8117 249.786 49.042C246.576 52.4742 241.761 54.2912 235.34 54.2912L220.293 54.4931ZM229.924 52.0704C231.729 52.4742 233.334 52.6761 235.14 52.6761C238.751 52.6761 242.162 51.2628 244.569 48.6382C247.177 45.6098 248.582 41.7739 248.381 37.736C248.582 33.6982 247.177 29.8622 244.569 26.8338C242.162 24.2092 238.551 22.5941 234.939 22.796C233.334 22.796 231.529 22.9979 229.924 23.6035V52.0704Z" fill="white"/>
<path d="M268.043 15.3258V31.6791H275.666C277.071 31.881 278.475 31.4772 279.478 30.4677C280.481 29.2564 281.083 27.6412 281.083 26.0261H282.287V40.1586H281.083C281.083 38.9472 280.883 37.7359 280.481 36.5245C280.08 35.717 279.478 35.3132 278.876 34.9094C277.873 34.5056 276.87 34.3037 275.666 34.3037H268.243V47.2248C268.243 48.6381 268.243 50.0513 268.644 51.4646C268.845 52.0703 269.447 52.4741 269.848 52.6759C270.651 53.0797 271.654 53.4835 272.657 53.4835H274.061V54.6949H256.406V53.2816H257.811C259.215 53.4835 260.619 52.8778 261.623 51.8684C262.224 50.4551 262.425 48.84 262.425 47.2248V20.3731C262.425 18.9599 262.425 17.5466 262.024 16.1334C261.823 15.5277 261.422 15.1239 260.82 14.7201C260.018 14.3163 259.014 13.9125 258.011 13.9125H256.607V12.9031H287.303L287.704 21.9882H286.701C286.3 20.3731 285.698 18.9599 284.895 17.7485C284.293 16.9409 283.29 16.1334 282.287 15.7296C280.682 15.3258 279.077 15.1239 277.472 15.1239L268.043 15.3258Z" fill="white"/>
<path d="M307.766 20.1702C311.979 20.1702 316.192 21.9872 319.001 25.0156C322.211 28.2459 324.017 32.6875 323.816 37.3311C324.017 41.9746 322.211 46.6181 319.001 50.0503C312.782 56.5109 302.75 56.7128 296.33 50.4541C296.13 50.2522 296.13 50.2522 295.929 50.0503C292.719 46.6181 291.114 41.9746 291.315 37.3311C291.114 32.4856 293.12 27.6402 296.732 24.4099C299.741 21.7853 303.553 20.1702 307.766 20.1702ZM307.365 21.9872C304.556 21.9872 301.948 23.1986 300.142 25.2175C297.935 28.044 296.732 32.0818 296.732 37.3311C296.531 41.7727 297.735 46.2143 300.142 49.8484C301.747 52.0692 304.355 53.2806 307.164 53.2806C310.174 53.2806 312.982 52.0692 314.989 49.6465C316.995 47.2238 317.998 43.3878 317.998 38.1386C317.998 32.4856 316.794 28.2459 314.587 25.4194C312.982 23.1986 310.174 21.9872 307.365 21.9872Z" fill="white"/>
<path d="M359.126 54.4917H350.298L339.063 38.946C338.261 38.946 337.458 38.946 337.057 38.946H336.455H335.653V48.6368C335.452 50.0501 335.653 51.2614 336.254 52.4728C337.057 53.2804 338.06 53.6842 339.063 53.4823H340.267V54.4917H326.022V53.4823H327.226C328.43 53.6842 329.634 53.0785 330.236 52.069C330.637 50.8577 330.837 49.6463 330.837 48.435V26.8324C331.038 25.4192 330.838 24.2078 330.236 22.9965C329.433 22.1889 328.43 21.7851 327.427 21.987H326.223V20.9775H338.261C340.869 20.9775 343.477 21.1794 346.085 21.7851C347.69 22.3908 349.295 23.4003 350.298 24.6116C351.502 26.0249 352.104 27.8419 352.104 29.6589C352.104 31.6779 351.502 33.4949 350.098 34.9081C348.493 36.5233 346.286 37.7346 344.079 38.1384L350.9 47.8293C351.903 49.4444 353.308 51.0596 354.913 52.2709C356.317 53.0785 357.722 53.4823 359.327 53.6842L359.126 54.4917ZM335.653 37.3309H337.057C339.665 37.5327 342.073 36.7252 344.28 35.3119C345.885 34.1006 346.687 32.0816 346.687 30.0627C346.687 28.2457 346.085 26.2268 344.681 25.0154C343.276 23.6021 341.471 22.9965 339.464 22.9965C338.261 22.9965 336.856 23.1984 335.653 23.4003V37.3309Z" fill="white"/>
<path d="M388.417 20.1689L389.22 31.4749H388.417C387.815 28.6484 386.21 26.0238 384.003 24.2068C381.997 22.7935 379.59 21.986 377.182 21.986C374.975 21.986 372.969 22.5916 371.163 23.6011C369.358 24.8124 367.753 26.8314 366.95 28.8503C365.947 31.8787 365.345 34.9071 365.345 37.9355C365.345 40.5601 365.746 43.3866 366.749 45.8093C367.552 48.0301 369.157 49.8471 371.163 51.0585C373.17 52.2699 375.376 52.8755 377.784 52.8755C379.79 52.8755 381.797 52.4718 383.402 51.4623C385.608 50.049 387.414 48.232 388.818 46.0112L389.621 46.415C388.217 49.0396 386.21 51.2604 383.803 52.8755C381.395 54.2888 378.586 54.8945 375.978 54.8945C370.963 55.0964 366.148 52.8755 363.138 48.8377C360.931 45.6074 359.728 41.9733 359.728 37.9355C359.728 34.7052 360.53 31.6768 361.934 28.8503C363.339 26.2257 365.546 23.803 368.154 22.3897C370.762 20.7746 373.771 19.967 376.58 20.1689C378.988 20.1689 381.395 20.7746 383.602 21.986C384.003 22.1878 384.605 22.3897 385.007 22.5916C385.408 22.5916 385.809 22.3897 386.21 22.1878C386.612 21.5822 387.013 20.9765 387.013 20.3708L388.417 20.1689Z" fill="white"/>
<path d="M401.859 22.7946V35.9176H409.081C410.486 36.1195 411.689 35.7157 412.893 35.11C413.896 34.1006 414.298 32.4854 414.298 31.0722H415.1V42.782H414.298C414.298 41.7725 413.896 40.763 413.696 39.7536C413.294 39.1479 412.893 38.7441 412.291 38.3403C411.288 37.9365 410.285 37.7346 409.282 37.9365H402.059V49.0406C402.059 49.8482 402.059 50.8577 402.26 51.6652C402.461 52.069 402.661 52.2709 402.862 52.4728C403.464 52.6747 404.066 52.8766 404.667 52.6747H410.285C411.689 52.6747 412.893 52.6747 414.298 52.2709C415.301 51.8671 416.103 51.4633 416.705 50.6558C417.909 49.2425 418.912 47.8293 419.915 46.0122H420.918L418.31 54.4917H392.63V53.4823H393.834C394.636 53.4823 395.439 53.2804 396.04 52.8766C396.642 52.6747 396.843 52.2709 397.044 51.6652C397.244 50.6558 397.445 49.4444 397.244 48.435V26.8324C397.445 25.4192 397.244 24.2078 396.642 22.9965C395.84 22.1889 394.837 21.987 393.633 21.987H392.429V20.9775H418.109L418.511 28.2457H417.508C417.307 27.0343 416.906 25.823 416.304 24.6116C415.903 24.0059 415.301 23.4003 414.498 22.9965C413.294 22.7946 412.291 22.5927 411.087 22.5927L401.859 22.7946Z" fill="white"/>
<rect x="1.125" y="1.125" width="68.9781" height="65.749" rx="2.625" fill="white" stroke="white" stroke-width="1.75"/>
<path d="M31.1065 36.3208H62.4043L59.1943 45.6079H28.0971V45.406L20.8745 65.9991H65.2131C67.6206 65.5953 69.4262 63.3745 69.2256 60.9517V24.0054H35.3197L31.1065 36.3208Z" fill="#75AE21"/>
<path d="M65.2132 2H42.9436L38.5298 14.7192H69.0251V7.24921C69.2257 4.8265 67.6207 2.40379 65.2132 2Z" fill="#75AE21"/>
<path d="M42.9441 2H6.02874C3.62122 2.40379 1.81558 4.62461 2.0162 7.04732V14.7192H38.5303L42.9441 2Z" fill="black"/>
<path d="M2.0162 24.0054V60.9517C1.81558 63.3745 3.62122 65.7972 6.02874 65.9991H10.4425L25.4896 24.0054H2.0162Z" fill="black"/>
<path d="M69.023 24.0052V14.7183H2.01465V24.0052H25.4876L10.4409 65.9982H20.8733L28.0958 45.4055V45.6074H59.1925L62.6031 36.3205H31.1051L35.3182 24.0052H69.023Z" fill="white"/>
</svg>
