<svg width="501" height="72" viewBox="0 0 501 72" fill="none" xmlns="http://www.w3.org/2000/svg">
<g clip-path="url(#clip0_776_30154)">
<path d="M18.3242 0C8.49576 0 0.499751 7.8133 0 17.6429V18.4831V53.4329C0 63.6826 8.16259 71.916 18.3242 71.916V18.4831H32.7337C42.812 18.4831 50.2249 10.1657 50.2249 0H18.3242Z" fill="#003399"/>
<path d="M51.141 72C60.9694 72 68.9654 64.1867 69.4652 54.3571H69.6318V18.4831C69.6318 8.23337 61.4692 0 51.3076 0V53.5169H36.7315C26.6532 53.5169 19.2402 61.8343 19.2402 72" fill="#003399"/>
<path d="M42.5619 20.1633C42.5619 24.9521 36.8148 27.2205 32.0672 27.2205H27.4028V50.8284H27.8193C27.8193 46.0396 29.9849 43.7713 34.7325 43.7713H42.9784V20.1633H42.5619Z" fill="#003399"/>
<path d="M137.015 9.91357V60.49H127.52L102.532 29.8249V60.49H91.0381V9.91357H100.617L125.521 40.5787V9.91357H137.015Z" fill="#111928"/>
<path d="M185.658 44.2753H156.505C157.588 49.1481 161.67 52.0886 167.5 52.0886C171.581 52.0886 174.496 50.8284 177.162 48.3079L183.075 54.777C179.494 58.8937 174.08 61.0781 167.167 61.0781C153.84 61.0781 145.178 52.5927 145.178 41.0827C145.178 29.4888 154.007 21.0874 165.751 21.0874C177.078 21.0874 185.824 28.7327 185.824 41.2508C185.907 42.0909 185.741 43.2671 185.658 44.2753ZM156.339 37.6382H175.329C174.58 32.7653 170.915 29.5728 165.834 29.5728C160.837 29.5728 157.172 32.6813 156.339 37.6382Z" fill="#111928"/>
<path d="M254.54 21.5916L240.547 60.49H229.802L221.14 36.378L212.144 60.49H201.399L187.49 21.5916H197.985L207.147 47.8879L216.642 21.5916H226.137L235.299 47.8879L244.711 21.5916H254.54Z" fill="#111928"/>
<path d="M255.456 56.8774L259.204 48.812C262.619 51.0804 267.867 52.5927 272.614 52.5927C277.778 52.5927 279.694 51.2484 279.694 49.0641C279.694 42.679 256.456 49.2321 256.456 33.6895C256.456 26.2963 263.036 21.0874 274.28 21.0874C279.611 21.0874 285.441 22.3476 289.106 24.448L285.358 32.4293C281.526 30.2449 277.778 29.5728 274.28 29.5728C269.282 29.5728 267.117 31.1691 267.117 33.1854C267.117 39.8225 290.439 33.4375 290.439 48.728C290.439 55.9532 283.775 61.0781 272.281 61.0781C265.618 61.0781 259.038 59.2298 255.456 56.8774Z" fill="#111928"/>
<path d="M298.018 9.91357H309.596V60.49H298.018V9.91357Z" fill="#111928"/>
<path d="M360.07 38.2263V60.49H348.909V39.9906C348.909 33.6895 346.077 30.8331 341.08 30.8331C335.749 30.8331 331.834 34.1936 331.834 41.3348V60.49H320.673V21.5915H331.335V26.1283C334.333 22.7677 338.831 21.0034 344.078 21.0034C353.24 21.0874 360.07 26.3803 360.07 38.2263Z" fill="#111928"/>
<path d="M395.053 58.6417C392.721 60.322 389.389 61.0781 385.974 61.0781C376.895 61.0781 371.565 56.3733 371.565 47.1318V31.1691H365.651V22.5157H371.565V13.0221H382.726V22.5157H392.304V31.1691H382.726V46.9638C382.726 50.3243 384.558 52.0886 387.557 52.0886C389.222 52.0886 390.888 51.5845 392.054 50.6604L395.053 58.6417Z" fill="#111928"/>
<path d="M437.699 44.2753H408.546C409.629 49.1481 413.711 52.0886 419.541 52.0886C423.622 52.0886 426.537 50.8284 429.203 48.3079L435.117 54.777C431.535 58.8937 426.121 61.0781 419.208 61.0781C405.881 61.0781 397.219 52.5927 397.219 41.0827C397.219 29.4888 406.048 21.0874 417.792 21.0874C429.12 21.0874 437.865 28.7327 437.865 41.2508C437.865 42.0909 437.782 43.2671 437.699 44.2753ZM408.38 37.6382H427.37C426.621 32.7653 422.956 29.5728 417.875 29.5728C412.794 29.5728 409.129 32.6813 408.38 37.6382Z" fill="#111928"/>
<path d="M445.361 6.88904H456.522V60.49H445.361V6.88904Z" fill="#111928"/>
<path d="M466.934 6.88904H478.095V60.49H466.934V6.88904Z" fill="#111928"/>
<path d="M487.09 9.9136C487.09 6.38501 489.922 3.61255 494.004 3.61255C498.168 3.61255 500.917 6.21698 500.917 9.66156C500.917 13.4422 498.085 16.1306 494.004 16.1306C489.922 16.2147 487.09 13.4422 487.09 9.9136ZM488.423 21.5915H499.584V60.49H488.423V21.5915Z" fill="#111928"/>
</g>
<defs>
<clipPath id="clip0_776_30154">
<rect width="501" height="72" fill="white"/>
</clipPath>
</defs>
</svg>
