<svg width="502" height="60" viewBox="0 0 502 60" fill="none" xmlns="http://www.w3.org/2000/svg">
<g clip-path="url(#clip0_776_30033)">
<path d="M89.6318 6.17413H100.541V53.8258H89.6318V6.17413Z" fill="#1F2A37"/>
<path d="M148.104 32.8496V53.8258H137.587V34.5119C137.587 28.5752 134.918 25.8839 130.209 25.8839C125.108 25.8839 121.497 29.0501 121.497 35.7784V53.8258H110.98V17.1768H121.026V21.4512C123.852 18.2849 128.09 16.6227 133.035 16.6227C141.668 16.6227 148.104 21.6886 148.104 32.8496Z" fill="#1F2A37"/>
<path d="M181.069 52.0052C178.871 53.5884 175.731 54.3008 172.514 54.3008C163.958 54.3008 158.935 49.868 158.935 41.1609V26.1213H153.363V17.9683H158.935V9.10287H169.453V18.0475H178.478V26.2005H169.453V41.0818C169.453 44.248 171.101 45.9103 174.005 45.9103C175.574 45.9103 177.144 45.4353 178.243 44.5646L181.069 52.0052Z" fill="#1F2A37"/>
<path d="M221.254 38.4696H193.784C194.804 43.0607 198.65 45.8311 204.144 45.8311C207.99 45.8311 210.737 44.6438 213.248 42.2691L218.821 48.3641C215.446 52.2427 210.423 54.3008 203.83 54.3008C191.272 54.3008 183.109 46.3061 183.109 35.4617C183.188 24.5382 191.429 16.6227 202.496 16.6227C213.17 16.6227 221.411 23.8258 221.411 35.62C221.411 36.4116 221.254 37.5989 221.254 38.4696ZM193.627 32.2955H211.522C210.815 27.7045 207.362 24.6966 202.574 24.6966C197.786 24.6966 194.333 27.6253 193.627 32.2955Z" fill="#1F2A37"/>
<path d="M228.475 3.32452H238.992V53.8258H228.475V3.32452Z" fill="#1F2A37"/>
<path d="M248.724 3.32452H259.241V53.8258H248.724V3.32452Z" fill="#1F2A37"/>
<path d="M304.45 38.4696H276.979C278 43.0607 281.846 45.8311 287.34 45.8311C291.185 45.8311 293.932 44.6438 296.444 42.2691L302.017 48.3641C298.642 52.2427 293.54 54.3008 287.026 54.3008C274.468 54.3008 266.305 46.3061 266.305 35.4617C266.384 24.5382 274.703 16.6227 285.77 16.6227C296.444 16.6227 304.685 23.8258 304.685 35.62C304.685 36.4116 304.528 37.5989 304.45 38.4696ZM276.822 32.2955H294.717C294.011 27.7045 290.558 24.6966 285.77 24.6966C281.061 24.6966 277.607 27.6253 276.822 32.2955Z" fill="#1F2A37"/>
<path d="M309.002 35.4617C309.002 24.4591 317.478 16.6227 329.251 16.6227C336.865 16.6227 342.908 19.9472 345.498 25.963L337.336 30.3958C335.373 26.9129 332.469 25.3298 329.173 25.3298C323.836 25.3298 319.676 29.0501 319.676 35.4617C319.676 41.8733 323.836 45.5937 329.173 45.5937C332.469 45.5937 335.373 44.0897 337.336 40.5277L345.498 45.0396C342.83 50.8971 336.865 54.3008 329.251 54.3008C317.4 54.3799 309.002 46.5435 309.002 35.4617Z" fill="#1F2A37"/>
<path d="M375.558 52.0052C373.361 53.5884 370.221 54.3008 367.003 54.3008C358.448 54.3008 353.425 49.868 353.425 41.1609V26.1213H347.853V17.9683H353.425V9.10287H363.942V18.0475H372.968V26.2005H363.942V41.0818C363.942 44.248 365.669 45.9103 368.494 45.9103C370.064 45.9103 371.634 45.4353 372.733 44.5646L375.558 52.0052Z" fill="#1F2A37"/>
<path d="M425.554 6.17413V53.8258H416.607L393.061 24.934V53.8258H382.229V6.17413H391.255L414.723 35.066V6.17413H425.554Z" fill="#1F2A37"/>
<path d="M471.391 38.4696H443.92C444.941 43.0607 448.786 45.8311 454.28 45.8311C458.126 45.8311 460.873 44.6438 463.385 42.2691L468.957 48.3641C465.583 52.2427 460.481 54.3008 453.967 54.3008C441.409 54.3008 433.246 46.3061 433.246 35.4617C433.246 24.5382 441.566 16.6227 452.632 16.6227C463.306 16.6227 471.548 23.8258 471.548 35.62C471.548 36.4116 471.469 37.5989 471.391 38.4696ZM443.763 32.2955H461.658C460.952 27.7045 457.498 24.6966 452.711 24.6966C447.923 24.6966 444.47 27.6253 443.763 32.2955Z" fill="#1F2A37"/>
<path d="M502 52.0052C499.803 53.5884 496.663 54.3008 493.445 54.3008C484.89 54.3008 479.867 49.868 479.867 41.1609V26.1213H474.294V17.9683H479.867V9.10287H490.384V18.0475H499.41V26.2005H490.384V41.0818C490.384 44.248 492.111 45.9103 494.936 45.9103C496.506 45.9103 498.076 45.4353 499.175 44.5646L502 52.0052Z" fill="#1F2A37"/>
<path d="M66.4781 9.89446H39.8712V7.28232H49.2111V0H23.3105V7.28232H32.6504V9.89446H6.04346C2.66854 9.89446 0 12.6649 0 15.9894V44.5646C0 47.8892 2.66854 50.6596 6.04346 50.6596H35.0835V46.7018H37.5166V60.0792L47.2489 50.6596H66.3996C69.6961 50.6596 72.4431 47.9683 72.4431 44.5646V15.9894C72.5216 12.6649 69.7745 9.89446 66.4781 9.89446ZM19.7001 38.7071C14.9124 38.7071 10.9881 34.7493 10.9881 29.9208C10.9881 25.0923 14.9124 21.1346 19.7001 21.1346C24.4878 21.1346 28.4121 25.0923 28.4121 29.9208C28.3336 34.7493 24.4878 38.7071 19.7001 38.7071ZM51.8011 38.7071C47.0134 38.7071 43.0891 34.7493 43.0891 29.9208C43.0891 25.0923 47.0134 21.1346 51.8011 21.1346C56.5888 21.1346 60.5131 25.0923 60.5131 29.9208C60.5131 34.7493 56.5888 38.7071 51.8011 38.7071Z" fill="#006A44"/>
</g>
<defs>
<clipPath id="clip0_776_30033">
<rect width="502" height="60" fill="white"/>
</clipPath>
</defs>
</svg>
