<svg width="441" height="61" viewBox="0 0 441 61" fill="none" xmlns="http://www.w3.org/2000/svg">
<g clip-path="url(#clip0_776_30173)">
<path d="M149.742 6.67065L126.882 60.3571H114.779L91.9971 6.67065H105.207L121.265 45.0066L137.56 6.67065H149.742Z" fill="#111928"/>
<path d="M152.59 6.67062C152.59 2.89328 155.517 0 159.946 0C164.376 0 167.303 2.73254 167.303 6.42951C167.303 10.448 164.376 13.3412 159.946 13.3412C155.517 13.3412 152.59 10.448 152.59 6.67062ZM154.014 19.1278H165.8V60.4374H154.014V19.1278Z" fill="#111928"/>
<path d="M172.84 56.5797L176.795 47.9802C180.434 50.3913 185.971 51.9986 190.955 51.9986C196.413 51.9986 198.47 50.552 198.47 48.2213C198.47 41.4703 173.948 48.382 173.948 31.9064C173.948 24.1106 180.909 18.5652 192.774 18.5652C198.391 18.5652 204.561 19.8511 208.437 22.1818L204.482 30.7009C200.447 28.3702 196.492 27.6469 192.774 27.6469C187.474 27.6469 185.26 29.3346 185.26 31.5046C185.26 38.577 209.782 31.7457 209.782 47.9802C209.782 55.6152 202.741 61.0803 190.639 61.0803C183.519 61 176.637 59.0711 172.84 56.5797Z" fill="#111928"/>
<path d="M257.797 19.1278V60.4374H246.644V55.4546C243.559 59.0712 239.05 61 234.066 61C223.862 61 216.664 55.1331 216.664 42.4348V19.1278H228.45V40.6667C228.45 47.5784 231.456 50.6324 236.677 50.6324C242.135 50.6324 246.011 47.0962 246.011 39.5415V19.1278H257.797Z" fill="#111928"/>
<path d="M304.705 36.809V60.3571H293.71V55.2135C291.495 58.9908 287.303 61 281.291 61C271.798 61 266.103 55.6153 266.103 48.4625C266.103 41.1489 271.166 36.0857 283.585 36.0857H292.919C292.919 30.942 289.913 27.9684 283.585 27.9684C279.313 27.9684 274.804 29.415 271.878 31.8261L267.685 23.4677C272.115 20.253 278.68 18.4849 285.167 18.4849C297.507 18.4849 304.705 24.3518 304.705 36.809ZM292.919 47.3373V43.1581H284.85C279.313 43.1581 277.573 45.2477 277.573 47.9803C277.573 50.9539 280.104 52.9631 284.218 52.9631C288.173 52.9631 291.495 51.1146 292.919 47.3373Z" fill="#111928"/>
<path d="M315.305 3.45581H327.092V60.357H315.305V3.45581Z" fill="#111928"/>
<path d="M336.584 6.67062C336.584 2.89328 339.511 0 343.941 0C348.291 0 351.297 2.73254 351.297 6.42951C351.297 10.448 348.37 13.3412 343.941 13.3412C339.59 13.3412 336.584 10.448 336.584 6.67062ZM338.008 19.1278H349.794V60.4374H338.008V19.1278Z" fill="#111928"/>
<path d="M394.25 51.195V60.4374H358.021V53.2042L378.746 28.3702H358.575V19.1278H393.617V26.361L372.892 51.195H394.25Z" fill="#111928"/>
<path d="M440.842 43.0777H410.071C411.178 48.2214 415.529 51.3557 421.699 51.3557C425.97 51.3557 429.134 50.0698 431.903 47.3373L438.152 54.249C434.355 58.5889 428.739 60.9196 421.382 60.9196C407.302 60.9196 398.205 51.9183 398.205 39.7023C398.205 27.3254 407.46 18.4849 419.879 18.4849C431.824 18.4849 441 26.6021 441 39.863C441 40.8274 440.921 42.1133 440.842 43.0777ZM409.912 36.166H429.925C429.134 30.942 425.258 27.5665 419.958 27.5665C414.579 27.5665 410.782 30.8617 409.912 36.166Z" fill="#111928"/>
<g clip-path="url(#clip1_776_30173)">
<path fill-rule="evenodd" clip-rule="evenodd" d="M57.4328 6.99801C47.0731 6.99801 48.1908 16.3351 46.4283 25.0613C45.9985 27.2428 46.7722 26.8938 49.0935 26.8938H53.4351C58.2496 26.8938 56.2292 28.5081 53.1342 32.2604L38.2609 52.4179L40.1953 36.1436C40.7541 33.962 40.2383 32.6967 38.003 32.6967H34.9509C31.1681 32.6967 31.77 32.0422 32.1138 29.7734C35.0799 11.2302 34.65 6.91077 21.7971 6.91077H7.00977L34.0052 60.8823H41.5279H49.0505L76.046 6.91077H57.4328" fill="url(#paint0_linear_776_30173)"/>
</g>
</g>
<defs>
<linearGradient id="paint0_linear_776_30173" x1="41.5279" y1="60.8823" x2="41.5279" y2="6.91077" gradientUnits="userSpaceOnUse">
<stop stop-color="#8B5CF6"/>
<stop offset="1" stop-color="#631EFF"/>
</linearGradient>
<clipPath id="clip0_776_30173">
<rect width="441" height="61" fill="white"/>
</clipPath>
<clipPath id="clip1_776_30173">
<rect width="69" height="54" fill="white" transform="translate(7 7)"/>
</clipPath>
</defs>
</svg>
